<?xml version="1.0" encoding="UTF-8" standalone="no"?>
<!DOCTYPE svg PUBLIC "-//W3C//DTD SVG 1.1//EN"
 "http://www.w3.org/Graphics/SVG/1.1/DTD/svg11.dtd">
<!-- Generated by graphviz version 2.38.0 (20140413.2041)
 -->
<!-- Title: %3 Pages: 1 -->
<svg width="354pt" height="875pt"
 viewBox="0.00 0.00 354.05 875.00" xmlns="http://www.w3.org/2000/svg" xmlns:xlink="http://www.w3.org/1999/xlink">
<g id="graph0" class="graph" transform="scale(1 1) rotate(0) translate(4 871)">
<title>%3</title>
<polygon fill="white" stroke="none" points="-4,4 -4,-871 350.046,-871 350.046,4 -4,4"/>
<!-- HomePage -->
<g id="node1" class="node"><title>HomePage</title>
<ellipse fill="none" stroke="black" cx="50.0456" cy="-776" rx="50.0912" ry="18"/>
<text text-anchor="middle" x="50.0456" y="-772.3" font-family="Times New Roman,serif" font-size="14.00">HomePage</text>
</g>
<!-- LoginLink -->
<g id="node2" class="node"><title>LoginLink</title>
<ellipse fill="none" stroke="black" cx="91.0456" cy="-703" rx="48.1917" ry="18"/>
<text text-anchor="middle" x="91.0456" y="-699.3" font-family="Times New Roman,serif" font-size="14.00">LoginLink</text>
</g>
<!-- HomePage&#45;&gt;LoginLink -->
<g id="edge1" class="edge"><title>HomePage&#45;&gt;LoginLink</title>
<path fill="none" stroke="black" d="M59.762,-758.174C64.7148,-749.597 70.8417,-738.987 76.3569,-729.437"/>
<polygon fill="black" stroke="black" points="79.429,-731.115 81.3989,-720.705 73.3671,-727.615 79.429,-731.115"/>
</g>
<!-- GithubAuthorize -->
<g id="node5" class="node"><title>GithubAuthorize</title>
<ellipse fill="none" stroke="black" cx="91.0456" cy="-630" rx="70.6878" ry="18"/>
<text text-anchor="middle" x="91.0456" y="-626.3" font-family="Times New Roman,serif" font-size="14.00">GithubAuthorize</text>
</g>
<!-- LoginLink&#45;&gt;GithubAuthorize -->
<g id="edge4" class="edge"><title>LoginLink&#45;&gt;GithubAuthorize</title>
<path fill="none" stroke="black" d="M91.0456,-684.813C91.0456,-676.789 91.0456,-667.047 91.0456,-658.069"/>
<polygon fill="black" stroke="black" points="94.5457,-658.029 91.0456,-648.029 87.5457,-658.029 94.5457,-658.029"/>
</g>
<!-- DenyPage -->
<g id="node3" class="node"><title>DenyPage</title>
<ellipse fill="none" stroke="black" cx="189.046" cy="-849" rx="47.3916" ry="18"/>
<text text-anchor="middle" x="189.046" y="-845.3" font-family="Times New Roman,serif" font-size="14.00">DenyPage</text>
</g>
<!-- StoreDestination -->
<g id="node4" class="node"><title>StoreDestination</title>
<ellipse fill="none" stroke="black" cx="189.046" cy="-776" rx="70.6878" ry="18"/>
<text text-anchor="middle" x="189.046" y="-772.3" font-family="Times New Roman,serif" font-size="14.00">StoreDestination</text>
</g>
<!-- DenyPage&#45;&gt;StoreDestination -->
<g id="edge2" class="edge"><title>DenyPage&#45;&gt;StoreDestination</title>
<path fill="none" stroke="black" d="M189.046,-830.813C189.046,-822.789 189.046,-813.047 189.046,-804.069"/>
<polygon fill="black" stroke="black" points="192.546,-804.029 189.046,-794.029 185.546,-804.029 192.546,-804.029"/>
</g>
<!-- StoreDestination&#45;&gt;LoginLink -->
<g id="edge3" class="edge"><title>StoreDestination&#45;&gt;LoginLink</title>
<path fill="none" stroke="black" d="M166.808,-758.889C153.118,-748.971 135.407,-736.139 120.552,-725.377"/>
<polygon fill="black" stroke="black" points="122.339,-722.35 112.188,-719.317 118.232,-728.019 122.339,-722.35"/>
</g>
<!-- Callback -->
<g id="node6" class="node"><title>Callback</title>
<ellipse fill="none" stroke="black" cx="91.0456" cy="-557" rx="42.4939" ry="18"/>
<text text-anchor="middle" x="91.0456" y="-553.3" font-family="Times New Roman,serif" font-size="14.00">Callback</text>
</g>
<!-- GithubAuthorize&#45;&gt;Callback -->
<g id="edge5" class="edge"><title>GithubAuthorize&#45;&gt;Callback</title>
<path fill="none" stroke="black" d="M91.0456,-611.813C91.0456,-603.789 91.0456,-594.047 91.0456,-585.069"/>
<polygon fill="black" stroke="black" points="94.5457,-585.029 91.0456,-575.029 87.5457,-585.029 94.5457,-585.029"/>
</g>
<!-- GotCode -->
<g id="node7" class="node"><title>GotCode</title>
<ellipse fill="none" stroke="black" cx="91.0456" cy="-484" rx="44.6926" ry="18"/>
<text text-anchor="middle" x="91.0456" y="-480.3" font-family="Times New Roman,serif" font-size="14.00">GotCode</text>
</g>
<!-- Callback&#45;&gt;GotCode -->
<g id="edge6" class="edge"><title>Callback&#45;&gt;GotCode</title>
<path fill="none" stroke="black" d="M91.0456,-538.813C91.0456,-530.789 91.0456,-521.047 91.0456,-512.069"/>
<polygon fill="black" stroke="black" points="94.5457,-512.029 91.0456,-502.029 87.5457,-512.029 94.5457,-512.029"/>
</g>
<!-- ErrorPage -->
<g id="node8" class="node"><title>ErrorPage</title>
<ellipse fill="none" stroke="black" cx="117.046" cy="-91" rx="47.3916" ry="18"/>
<text text-anchor="middle" x="117.046" y="-87.3" font-family="Times New Roman,serif" font-size="14.00">ErrorPage</text>
</g>
<!-- GotCode&#45;&gt;ErrorPage -->
<g id="edge7" class="edge"><title>GotCode&#45;&gt;ErrorPage</title>
<path fill="none" stroke="black" d="M86.5089,-465.92C83.1107,-451.623 79.0456,-430.627 79.0456,-412 79.0456,-412 79.0456,-412 79.0456,-163 79.0456,-146.188 87.43,-129.505 96.3221,-116.538"/>
<polygon fill="black" stroke="black" points="99.3512,-118.327 102.462,-108.199 93.7146,-114.176 99.3512,-118.327"/>
</g>
<!-- GetUser -->
<g id="node9" class="node"><title>GetUser</title>
<ellipse fill="none" stroke="black" cx="148.046" cy="-411" rx="40.8928" ry="18"/>
<text text-anchor="middle" x="148.046" y="-407.3" font-family="Times New Roman,serif" font-size="14.00">GetUser</text>
</g>
<!-- GotCode&#45;&gt;GetUser -->
<g id="edge8" class="edge"><title>GotCode&#45;&gt;GetUser</title>
<path fill="none" stroke="black" d="M104.266,-466.533C111.46,-457.572 120.498,-446.313 128.492,-436.357"/>
<polygon fill="black" stroke="black" points="131.366,-438.367 134.897,-428.378 125.907,-433.985 131.366,-438.367"/>
</g>
<!-- GetUser&#45;&gt;ErrorPage -->
<g id="edge10" class="edge"><title>GetUser&#45;&gt;ErrorPage</title>
<path fill="none" stroke="black" d="M136.326,-393.661C127.547,-379.805 117.046,-359.041 117.046,-339 117.046,-339 117.046,-339 117.046,-163 117.046,-148.651 117.046,-132.671 117.046,-119.511"/>
<polygon fill="black" stroke="black" points="120.546,-119.216 117.046,-109.216 113.546,-119.216 120.546,-119.216"/>
</g>
<!-- New -->
<g id="node10" class="node"><title>New</title>
<ellipse fill="none" stroke="black" cx="195.046" cy="-338" rx="31.3957" ry="18"/>
<text text-anchor="middle" x="195.046" y="-334.3" font-family="Times New Roman,serif" font-size="14.00">New?</text>
</g>
<!-- GetUser&#45;&gt;New -->
<g id="edge9" class="edge"><title>GetUser&#45;&gt;New</title>
<path fill="none" stroke="black" d="M158.946,-393.533C164.76,-384.751 172.034,-373.763 178.526,-363.956"/>
<polygon fill="black" stroke="black" points="181.602,-365.648 184.204,-355.378 175.765,-361.785 181.602,-365.648"/>
</g>
<!-- SetCookie -->
<g id="node11" class="node"><title>SetCookie</title>
<ellipse fill="none" stroke="black" cx="252.046" cy="-91" rx="48.9926" ry="18"/>
<text text-anchor="middle" x="252.046" y="-87.3" font-family="Times New Roman,serif" font-size="14.00">SetCookie</text>
</g>
<!-- New&#45;&gt;SetCookie -->
<g id="edge11" class="edge"><title>New&#45;&gt;SetCookie</title>
<path fill="none" stroke="black" d="M220.067,-327.144C230.931,-321.496 242.621,-313.255 249.046,-302 282.289,-243.761 269.316,-160.817 259.374,-118.722"/>
<polygon fill="black" stroke="black" points="262.751,-117.8 256.941,-108.94 255.958,-119.49 262.751,-117.8"/>
<text text-anchor="middle" x="308.046" y="-203.8" font-family="Times New Roman,serif" font-size="14.00">already exists</text>
</g>
<!-- Prompt -->
<g id="node13" class="node"><title>Prompt</title>
<ellipse fill="none" stroke="black" cx="195.046" cy="-251" rx="38.1938" ry="18"/>
<text text-anchor="middle" x="195.046" y="-247.3" font-family="Times New Roman,serif" font-size="14.00">Prompt</text>
</g>
<!-- New&#45;&gt;Prompt -->
<g id="edge13" class="edge"><title>New&#45;&gt;Prompt</title>
<path fill="none" stroke="black" d="M195.046,-319.799C195.046,-308.163 195.046,-292.548 195.046,-279.237"/>
<polygon fill="black" stroke="black" points="198.546,-279.175 195.046,-269.175 191.546,-279.175 198.546,-279.175"/>
<text text-anchor="middle" x="220.046" y="-290.8" font-family="Times New Roman,serif" font-size="14.00">new user</text>
</g>
<!-- Destination -->
<g id="node12" class="node"><title>Destination</title>
<ellipse fill="none" stroke="black" cx="252.046" cy="-18" rx="51.1914" ry="18"/>
<text text-anchor="middle" x="252.046" y="-14.3" font-family="Times New Roman,serif" font-size="14.00">Destination</text>
</g>
<!-- SetCookie&#45;&gt;Destination -->
<g id="edge12" class="edge"><title>SetCookie&#45;&gt;Destination</title>
<path fill="none" stroke="black" d="M252.046,-72.8129C252.046,-64.7895 252.046,-55.0475 252.046,-46.0691"/>
<polygon fill="black" stroke="black" points="255.546,-46.0288 252.046,-36.0288 248.546,-46.0289 255.546,-46.0288"/>
</g>
<!-- AddToDB -->
<g id="node14" class="node"><title>AddToDB</title>
<ellipse fill="none" stroke="black" cx="195.046" cy="-164" rx="50.0912" ry="18"/>
<text text-anchor="middle" x="195.046" y="-160.3" font-family="Times New Roman,serif" font-size="14.00">AddToDB</text>
</g>
<!-- Prompt&#45;&gt;AddToDB -->
<g id="edge14" class="edge"><title>Prompt&#45;&gt;AddToDB</title>
<path fill="none" stroke="black" d="M195.046,-232.799C195.046,-221.163 195.046,-205.548 195.046,-192.237"/>
<polygon fill="black" stroke="black" points="198.546,-192.175 195.046,-182.175 191.546,-192.175 198.546,-192.175"/>
</g>
<!-- AddToDB&#45;&gt;ErrorPage -->
<g id="edge15" class="edge"><title>AddToDB&#45;&gt;ErrorPage</title>
<path fill="none" stroke="black" d="M177.346,-146.889C166.901,-137.382 153.516,-125.198 142.012,-114.725"/>
<polygon fill="black" stroke="black" points="144.157,-111.946 134.406,-107.803 139.445,-117.122 144.157,-111.946"/>
</g>
<!-- AddToDB&#45;&gt;SetCookie -->
<g id="edge16" class="edge"><title>AddToDB&#45;&gt;SetCookie</title>
<path fill="none" stroke="black" d="M208.266,-146.533C215.46,-137.572 224.498,-126.313 232.492,-116.357"/>
<polygon fill="black" stroke="black" points="235.366,-118.367 238.897,-108.378 229.907,-113.985 235.366,-118.367"/>
</g>
</g>
</svg>
